<svg xmlns="http://www.w3.org/2000/svg" width="519" height="291" viewBox="0 0 519 291">
<g>
<path d="M 7.00,150.09 C7.00,80.19 7.30,23.00 7.66,23.00 C10.00,23.00 278.75,50.18 279.75,50.52 C280.67,50.83 281.00,54.73 281.00,65.47 L 281.00,80.00 L 277.53,80.00 L 274.06,80.00 L 273.78,68.27 L 273.50,56.53 L 148.00,43.83 C78.97,36.84 20.57,31.09 18.22,31.06 L 13.94,31.00 L 14.43,149.75 C14.89,262.98 14.99,268.51 16.71,268.79 C17.69,268.94 65.30,264.32 122.50,258.52 C179.70,252.71 235.28,247.08 246.00,245.99 C256.73,244.91 267.41,243.77 269.75,243.45 L 274.00,242.88 L 274.00,231.44 L 274.00,220.00 L 277.50,220.00 L 281.00,220.00 L 281.00,234.48 C281.00,251.34 282.98,249.30 265.00,250.97 C239.05,253.39 14.21,276.03 10.75,276.58 L 7.00,277.18 L 7.00,150.09 M 355.50,209.49 C342.29,204.81 347.24,191.95 365.86,182.57 C371.36,179.80 373.00,178.43 373.89,175.90 C375.71,170.68 375.23,170.54 370.49,174.90 C365.46,179.54 362.39,181.00 357.66,181.00 C351.53,181.00 347.00,175.28 347.00,167.53 C347.00,163.11 345.75,163.04 343.10,167.34 C339.47,173.21 330.45,181.00 327.28,181.00 C322.15,181.00 317.00,175.37 317.00,169.74 C317.00,167.19 330.30,127.54 333.77,119.75 C335.35,116.21 336.44,115.00 338.04,115.00 C341.50,115.00 346.00,118.78 346.00,121.69 C346.00,123.09 342.90,131.72 339.11,140.87 C326.97,170.20 326.40,176.00 336.71,165.30 C345.36,156.32 350.69,148.47 354.55,139.00 C358.83,128.54 364.20,120.56 369.20,117.25 C372.39,115.14 373.81,114.82 378.18,115.24 C382.68,115.68 383.88,116.29 387.22,119.87 C389.34,122.14 391.47,124.00 391.95,124.00 C392.44,124.00 393.47,122.09 394.24,119.75 C395.95,114.61 399.09,113.71 403.41,117.11 C405.80,118.99 406.15,119.86 405.73,122.95 C405.46,124.95 404.02,129.49 402.52,133.04 C397.12,145.84 390.09,164.23 389.80,166.32 C389.61,167.64 390.11,168.57 391.09,168.77 C394.45,169.44 416.41,142.70 419.64,134.00 C428.41,110.43 433.57,97.57 434.73,96.41 C435.92,95.23 436.69,95.31 439.99,96.99 C442.11,98.08 444.15,99.89 444.50,101.01 C445.03,102.67 437.98,121.80 431.34,136.75 C431.04,137.44 431.26,138.00 431.84,138.00 C432.42,138.00 434.97,135.09 437.51,131.54 C443.13,123.67 450.89,116.52 455.47,115.01 C458.34,114.06 459.47,114.20 462.81,115.90 C469.33,119.23 469.42,118.61 458.65,145.38 C450.79,164.94 449.54,168.94 450.89,170.29 C452.17,171.57 458.10,165.78 467.19,154.39 C476.00,143.34 480.65,135.56 483.44,127.19 C484.85,122.96 486.00,119.16 486.00,118.75 C486.00,118.34 484.65,118.00 483.00,118.00 C481.21,118.00 480.00,117.48 480.00,116.70 C480.00,114.51 482.24,113.00 485.50,113.00 C488.45,113.00 488.78,112.58 491.91,104.93 C493.72,100.49 495.89,96.59 496.73,96.27 C498.73,95.51 504.80,98.80 505.51,101.04 C505.82,102.00 505.38,104.74 504.55,107.14 C502.51,112.98 502.52,113.00 506.33,113.00 C510.42,113.00 511.23,113.71 509.93,116.13 C509.22,117.46 507.82,118.00 505.09,118.00 C502.97,118.00 500.79,118.56 500.22,119.25 C499.00,120.75 486.21,152.67 482.98,162.30 C481.26,167.43 480.98,169.38 481.85,170.25 C482.72,171.12 484.29,170.06 488.26,165.95 C494.67,159.30 506.52,143.63 511.68,134.96 C517.80,124.69 516.91,130.61 510.52,142.68 C498.52,165.36 485.50,181.00 478.64,181.00 C474.15,181.00 469.28,177.01 468.47,172.68 C468.07,170.54 468.55,167.88 469.93,164.66 C472.31,159.12 472.33,159.00 471.04,159.00 C470.51,159.00 468.30,161.59 466.14,164.75 C460.84,172.51 453.65,179.80 450.55,180.58 C444.48,182.10 438.00,177.21 438.00,171.11 C438.00,169.13 440.26,161.43 443.03,154.02 C448.29,139.90 450.00,133.00 448.23,133.00 C446.53,133.00 437.83,143.10 431.21,152.77 C424.30,162.87 418.00,175.23 418.00,178.72 C418.00,181.83 414.99,181.70 411.11,178.44 C407.21,175.16 406.34,170.70 408.52,165.24 C411.07,158.87 409.81,158.13 405.77,163.63 C401.42,169.56 393.07,177.60 387.32,181.40 C385.03,182.92 382.85,184.92 382.49,185.83 C382.12,186.75 380.68,190.64 379.28,194.49 C376.00,203.50 374.48,205.72 370.10,207.92 C364.78,210.59 360.05,211.10 355.50,209.49 M 363.75,197.75 C366.01,195.33 367.79,190.00 366.34,190.00 C364.45,190.00 358.00,196.25 358.00,198.07 C358.00,200.73 361.14,200.55 363.75,197.75 M 371.15,161.25 C380.07,151.98 387.03,139.24 387.32,131.64 C387.62,123.97 383.03,121.61 378.09,126.90 C370.77,134.73 360.48,162.15 363.67,165.33 C365.08,166.74 366.73,165.84 371.15,161.25 M 191.38,207.09 C188.39,205.26 186.00,200.73 186.00,196.87 C186.00,194.27 205.59,137.68 212.09,121.50 C214.37,115.81 214.69,115.48 218.21,115.19 C222.76,114.81 226.00,116.41 226.00,119.04 C226.00,121.60 226.27,121.54 231.16,118.00 C234.22,115.78 236.41,115.00 239.57,115.00 C243.36,115.00 244.08,114.61 245.97,111.54 C251.18,103.13 263.66,95.02 277.00,91.39 C286.54,88.79 300.89,88.99 308.00,91.80 C314.61,94.42 320.05,99.21 323.02,105.03 C324.80,108.52 325.13,110.57 324.80,115.91 C323.96,129.37 314.14,142.30 298.99,149.88 C294.47,152.15 289.91,154.00 288.85,154.00 C285.28,154.00 285.68,156.90 290.07,162.76 C300.85,177.19 317.07,189.80 330.18,193.96 C342.66,197.92 342.00,197.26 337.05,200.85 C332.49,204.15 321.75,208.00 317.09,208.00 C305.41,208.00 285.88,187.15 276.25,164.41 C274.71,160.78 273.01,157.81 272.48,157.82 C270.76,157.83 269.86,166.18 270.37,177.25 L 270.86,188.00 L 266.95,188.00 C262.03,188.00 257.23,184.01 256.12,179.00 C255.06,174.26 256.53,160.28 259.05,151.06 C262.94,136.85 274.99,111.71 278.58,110.33 C280.79,109.48 284.63,110.78 287.69,113.41 C290.90,116.17 291.43,114.51 281.53,132.50 C275.16,144.08 274.83,145.50 278.75,144.55 C287.31,142.47 305.50,126.79 309.91,117.69 C312.90,111.52 312.45,106.41 308.68,103.60 C304.79,100.71 292.47,100.14 284.41,102.48 C271.09,106.36 259.90,114.30 255.54,122.96 C254.28,125.46 252.49,131.30 251.56,135.95 C247.66,155.35 236.26,174.25 225.50,179.14 C220.66,181.34 213.18,181.52 208.46,179.55 L 204.99,178.10 L 203.43,181.80 C201.38,186.68 198.28,198.30 197.44,204.25 C196.70,209.51 195.94,209.87 191.38,207.09 M 220.88,168.49 C228.59,161.52 237.42,139.62 236.81,128.94 C236.52,123.92 236.30,123.48 233.90,123.20 C230.33,122.78 226.16,127.72 220.41,139.18 C213.66,152.61 210.20,167.80 213.20,170.80 C215.12,172.72 216.74,172.23 220.88,168.49 M 57.66,191.61 C44.42,186.03 38.44,178.92 38.64,169.01 C38.81,160.72 42.16,153.06 48.00,147.59 C53.58,142.38 56.48,141.00 61.87,141.00 C65.99,141.00 75.00,146.00 75.00,148.29 C75.00,149.03 72.53,150.66 69.50,151.91 C58.18,156.60 49.02,168.37 51.86,174.58 C54.27,179.89 63.95,181.44 73.57,178.06 C87.76,173.07 93.51,160.99 87.63,148.50 C86.11,145.28 82.40,140.77 77.19,135.83 C66.87,126.02 63.61,120.03 64.20,111.90 C64.79,103.76 68.85,97.47 75.88,93.79 C89.59,86.63 108.38,93.56 112.03,107.12 C113.82,113.77 111.34,120.20 106.52,121.41 C103.84,122.08 97.64,120.77 95.00,118.98 C93.70,118.10 93.74,117.82 95.34,116.88 C97.41,115.67 100.00,110.16 100.00,106.99 C100.00,105.84 98.90,103.80 97.55,102.45 C92.53,97.44 81.76,100.24 78.32,107.46 C75.48,113.42 77.45,117.33 89.31,129.22 C102.22,142.16 105.18,147.61 105.81,159.56 C106.32,169.38 104.64,173.85 97.35,181.95 C90.73,189.32 82.11,193.27 71.65,193.72 C64.74,194.02 62.61,193.70 57.66,191.61 M 116.22,179.44 C113.02,177.20 110.72,172.26 111.47,169.26 C111.82,167.88 115.90,156.21 120.55,143.33 C125.20,130.45 129.00,119.48 129.00,118.96 C129.00,118.43 127.65,118.00 126.00,118.00 C122.95,118.00 122.53,117.40 123.61,114.58 C124.01,113.52 125.47,113.00 128.03,113.00 C131.56,113.00 131.94,112.72 133.06,109.25 C135.20,102.62 138.98,96.00 140.61,96.00 C143.26,96.00 148.05,99.35 148.61,101.60 C148.91,102.76 148.44,105.41 147.57,107.48 C145.41,112.67 145.52,113.00 149.50,113.00 C153.04,113.00 153.50,113.54 152.39,116.42 C151.97,117.52 150.49,118.00 147.56,118.00 L 143.34,118.00 L 140.57,124.75 C126.96,157.99 122.92,169.25 124.16,170.49 C125.43,171.77 128.44,169.31 134.97,161.69 C140.38,155.36 142.46,151.98 144.56,146.06 C152.53,123.56 161.35,113.77 172.19,115.41 C178.71,116.39 184.28,119.94 185.74,124.03 C189.13,133.50 182.01,149.82 172.62,154.09 C167.62,156.36 165.37,156.44 161.65,154.50 C158.11,152.65 157.34,153.10 156.04,157.79 C153.54,166.79 155.68,172.00 161.86,172.00 C167.05,172.00 172.95,167.99 182.11,158.24 C189.29,150.59 192.47,146.33 199.85,134.50 C204.67,126.75 203.58,131.82 197.97,143.15 C185.81,167.75 171.32,180.97 156.50,180.99 C147.40,181.00 142.69,177.36 140.62,168.75 C139.97,166.01 139.92,166.04 132.72,173.50 C126.41,180.04 125.04,181.00 121.96,181.00 C120.03,181.00 117.44,180.30 116.22,179.44 M 169.09,146.76 C174.89,140.95 179.68,126.86 177.13,123.08 C176.31,121.86 175.81,121.89 173.68,123.29 C169.43,126.07 158.67,145.72 159.73,148.75 C160.59,151.21 165.73,150.11 169.09,146.76 M 345.26,108.26 C341.16,106.22 340.45,103.97 342.59,99.80 C344.97,95.15 345.93,94.83 350.21,97.24 C354.81,99.83 355.54,101.78 353.60,106.43 C351.93,110.42 350.31,110.77 345.26,108.26 Z" fill="rgba(0,0,0,1)"/>
</g>
</svg>